<?xml version="1.0" standalone="no"?>
<!DOCTYPE svg PUBLIC "-//W3C//DTD SVG 20010904//EN"
 "http://www.w3.org/TR/2001/REC-SVG-20010904/DTD/svg10.dtd">
<svg version="1.0" xmlns="http://www.w3.org/2000/svg"
 width="16.000000pt" height="16.000000pt" viewBox="0 0 16.000000 16.000000"
 preserveAspectRatio="xMidYMid meet">
<metadata>
Created by potrace 1.11, written by Peter Selinger 2001-2013
</metadata>
<g transform="translate(0.000000,16.000000) scale(0.003200,-0.003200)"
fill="#000000" stroke="none">
<path d="M2310 4529 c-19 -4 -62 -10 -95 -13 -33 -3 -67 -7 -75 -10 -8 -3 -31
-7 -51 -10 -20 -3 -47 -10 -60 -15 -13 -5 -27 -9 -32 -9 -11 0 -118 -32 -142
-42 -11 -5 -38 -14 -60 -21 -22 -7 -44 -17 -49 -21 -6 -4 -18 -8 -28 -8 -10 0
-18 -4 -18 -10 0 -5 -5 -10 -10 -10 -19 0 -195 -87 -225 -112 -17 -13 -43 -30
-60 -38 -16 -8 -32 -17 -35 -20 -3 -3 -30 -23 -60 -45 -30 -22 -64 -47 -75
-57 -11 -9 -42 -37 -69 -60 -53 -46 -167 -158 -162 -158 2 0 -10 -15 -28 -33
-45 -47 -77 -87 -69 -87 4 0 0 -6 -9 -12 -16 -14 -98 -123 -98 -132 0 -3 -15
-29 -34 -58 -48 -75 -126 -235 -119 -242 4 -3 1 -6 -6 -6 -7 0 -9 -4 -6 -10 3
-5 1 -10 -5 -10 -6 0 -9 -4 -6 -8 3 -5 -2 -21 -10 -36 -7 -16 -14 -35 -14 -42
0 -8 -4 -14 -8 -14 -5 0 -9 -6 -10 -12 -1 -16 -4 -29 -22 -88 -7 -25 -14 -50
-16 -57 -1 -6 -11 -51 -22 -100 -32 -137 -34 -164 -37 -393 -3 -204 -1 -238
30 -425 3 -16 14 -64 25 -105 11 -41 23 -86 26 -99 3 -13 9 -32 15 -43 5 -10
7 -18 3 -18 -3 0 -2 -6 3 -13 5 -6 18 -34 28 -62 25 -71 77 -179 89 -187 6 -4
7 -8 3 -8 -4 0 4 -19 17 -42 14 -24 35 -61 47 -83 12 -22 34 -56 50 -76 16
-20 26 -39 22 -43 -3 -3 1 -6 11 -6 9 0 15 -4 12 -8 -3 -5 6 -20 19 -34 13
-14 21 -29 18 -32 -4 -3 2 -6 12 -6 10 0 16 -3 12 -6 -3 -4 -1 -12 6 -19 7 -6
37 -40 67 -75 30 -35 68 -75 84 -89 16 -14 42 -38 58 -53 16 -15 47 -42 69
-60 23 -18 51 -41 62 -51 12 -10 34 -26 50 -35 15 -9 27 -20 27 -24 0 -4 6 -8
14 -8 8 0 16 -4 18 -8 5 -15 266 -161 298 -168 3 0 27 -10 53 -22 27 -12 54
-22 61 -22 7 0 15 -3 19 -6 18 -18 177 -63 332 -94 143 -29 427 -42 555 -26
30 4 69 8 85 10 17 2 46 6 65 10 19 3 46 8 60 10 42 6 164 37 185 46 11 5 38
14 60 20 45 13 77 25 118 47 15 8 27 11 27 8 0 -3 17 2 38 13 20 11 60 30 87
43 28 13 52 26 55 29 6 6 37 24 93 54 20 11 37 23 37 28 0 4 6 8 13 8 7 0 23
9 35 20 12 11 26 20 32 20 5 0 10 5 10 10 0 6 4 10 10 10 10 0 38 21 76 57 13
13 26 23 29 23 3 0 19 14 37 30 17 17 35 30 40 30 5 0 6 4 3 10 -3 5 -2 10 3
10 15 0 119 108 197 205 22 28 45 56 52 63 6 6 14 21 18 31 3 11 12 22 20 25
8 3 15 10 15 15 0 5 17 36 39 68 65 98 181 342 181 381 0 6 5 12 12 12 6 0 9
3 5 6 -3 3 4 31 14 62 11 32 31 104 44 162 20 92 26 129 41 240 5 34 5 366 1
415 -4 35 -13 101 -22 160 -2 11 -6 27 -9 35 -3 8 -7 31 -10 50 -3 19 -13 59
-22 89 -9 30 -17 62 -19 70 -14 70 -152 374 -204 449 -10 15 -39 59 -64 97
-26 39 -56 81 -67 93 -11 12 -18 22 -16 22 3 0 -16 23 -43 50 -27 28 -47 50
-45 50 3 0 -25 29 -61 65 -35 36 -69 65 -75 65 -6 0 -9 4 -6 8 3 5 -7 17 -21
28 -15 10 -31 24 -37 29 -6 6 -38 31 -71 55 -33 25 -66 51 -73 58 -7 6 -17 12
-22 12 -5 0 -15 6 -22 13 -17 16 -158 97 -169 97 -5 0 -9 5 -9 10 0 6 -4 10
-10 10 -5 0 -39 14 -75 30 -36 17 -68 30 -70 30 -3 0 -24 9 -48 19 -45 20 -76
32 -92 37 -5 1 -37 10 -70 19 -99 28 -129 35 -155 40 -14 3 -36 8 -50 11 -31
7 -49 10 -125 20 -80 10 -401 12 -445 3z m-261 -1455 c82 -45 129 -139 117
-236 -10 -78 -43 -128 -114 -172 -149 -93 -351 23 -352 201 -1 181 190 295
349 207z m1141 5 c83 -44 125 -110 129 -201 6 -141 -109 -252 -250 -242 -207
14 -292 271 -136 411 65 59 180 73 257 32z m-1190 -872 c57 -30 202 -79 273
-93 10 -2 26 -5 35 -8 9 -3 53 -8 97 -12 209 -19 389 13 555 98 30 15 60 28
66 28 16 0 104 -88 104 -104 0 -32 -194 -138 -331 -180 -112 -35 -173 -44
-294 -44 -164 0 -272 24 -420 94 -110 52 -205 114 -205 133 0 14 72 101 84
101 6 0 22 -6 36 -13z"/>
</g>
</svg>
